<svg width="97" height="33" viewBox="0 0 97 33" fill="none" xmlns="http://www.w3.org/2000/svg">
<g clip-path="url(#clip0_19_41)">
<path d="M10.6148 0C6.97976 0 3.62651 1.21074 0.940002 3.25561C4.79261 6.17924 7.28105 10.8102 7.28105 16.0214C7.28105 21.2326 4.79261 25.8635 0.940002 28.7872C3.62651 30.832 6.97976 32.0428 10.6148 32.0428C19.4638 32.0428 26.6362 24.8704 26.6362 16.0214C26.6362 7.17238 19.4638 0 10.6148 0ZM17.2125 24.6137C19.0621 24.6137 20.828 23.9191 21.9271 22.4712L22.3009 22.8478C21.0707 24.3459 19.196 25.1243 17.2125 25.1243C13.2232 25.1243 10.3051 22.2034 10.3051 18.1081C10.3051 14.0128 13.0362 11.1171 16.7047 11.1171C20.3732 11.1171 23.1323 13.957 23.1323 17.9742V18.1081H10.8128C10.8128 21.9356 13.544 24.6137 17.2125 24.6137Z" fill="#FAFAFA"/>
<path d="M22.6218 17.5976H10.8129C10.9998 14.169 13.438 11.6276 16.7048 11.6276C19.9715 11.6276 22.4349 14.169 22.6218 17.5976Z" fill="#FAFAFA"/>
<path d="M26.0252 18.1081C26.0252 13.9849 28.8903 11.1199 32.8266 11.1199C34.8073 11.1199 36.6289 11.8703 37.8062 13.3684L37.4324 13.7701C36.3611 12.325 34.6734 11.6276 32.8266 11.6276C29.2111 11.6276 26.5608 14.2778 26.5608 18.1081C26.5608 21.9384 29.2111 24.6166 32.8266 24.6166C34.6734 24.6166 36.3611 23.9191 37.4324 22.4741L37.8062 22.8758C36.6289 24.3766 34.8073 25.1243 32.8266 25.1243C28.8903 25.1243 26.0252 22.2313 26.0252 18.1081Z" fill="#FAFAFA"/>
<path d="M41.9852 5.17212H42.5209V25.0433H41.9852V5.17212Z" fill="#FAFAFA"/>
<path d="M48.2537 6.67302C48.2537 6.29919 48.5745 5.97559 48.9512 5.97559C49.3278 5.97559 49.6486 6.2964 49.6486 6.67302C49.6486 7.04963 49.3278 7.37045 48.9512 7.37045C48.5745 7.37045 48.2537 7.04963 48.2537 6.67302ZM48.6833 11.198H49.219V25.0434H48.6833V11.198Z" fill="#FAFAFA"/>
<path d="M68.8196 18.1332C68.8196 22.2313 65.9015 25.1215 62.0991 25.1215C59.2062 25.1215 56.8516 23.4337 55.9143 20.8365V30.235H55.3787V11.198H55.9143V15.43C56.8516 12.8048 59.209 11.1171 62.0991 11.1171C65.9015 11.1171 68.8196 14.0351 68.8196 18.1332ZM68.2839 18.1332C68.2839 14.3029 65.6337 11.6248 62.0991 11.6248C58.5645 11.6248 55.9143 14.3029 55.9143 18.1332C55.9143 21.9635 58.5645 24.6138 62.0991 24.6138C65.6337 24.6138 68.2839 21.9635 68.2839 18.1332Z" fill="#FAFAFA"/>
<path d="M71.1239 23.2217L71.4447 22.7921C72.4351 23.7573 74.3098 24.6138 76.5332 24.6138C79.8278 24.6138 81.139 23.3556 81.139 21.5339C81.139 16.9002 71.6595 20.0609 71.6595 14.6795C71.6595 12.8327 73.1325 11.1171 76.5611 11.1171C78.274 11.1171 80.0957 11.6806 81.139 12.537L80.8182 12.9667C79.719 12.0823 78.1122 11.6276 76.5611 11.6276C73.5091 11.6276 72.2231 12.9667 72.2231 14.6795C72.2231 19.4472 81.6774 16.3143 81.6774 21.5339C81.6774 23.6234 79.9896 25.1215 76.536 25.1215C74.2875 25.1215 72.17 24.318 71.1267 23.2189L71.1239 23.2217Z" fill="#FAFAFA"/>
<path d="M96.94 18.1081H84.6206C84.6206 21.9384 87.3517 24.6166 91.0202 24.6166C92.867 24.6166 94.6357 23.9191 95.7348 22.4741L96.1087 22.8479C94.8756 24.3487 93.0009 25.1243 91.0202 25.1243C87.0309 25.1243 84.11 22.2062 84.11 18.1081C84.11 14.01 86.8412 11.1199 90.5097 11.1199C94.1782 11.1199 96.9372 13.9598 96.9372 17.9742V18.1081H96.94ZM84.6206 17.6004H96.4295C96.2426 14.1718 93.7792 11.6276 90.5125 11.6276C87.2457 11.6276 84.8075 14.1718 84.6206 17.6004Z" fill="#FAFAFA"/>
</g>
<defs>
<clipPath id="clip0_19_41">
<rect width="96" height="32.0428" fill="white" transform="translate(0.940002)"/>
</clipPath>
</defs>
</svg>
